<svg width="169" height="37" viewBox="0 0 169 37" fill="none" xmlns="http://www.w3.org/2000/svg">
<path d="M30.3795 8.75331H43.7253V11.6603H33.4186V16.4172H41.7432V19.3242H33.4186V24.3454H43.7253V27.2524H30.3795V8.75331ZM46.2451 13.7745H49.02V15.6244H49.1521C49.3988 15.2368 49.7247 14.8845 50.13 14.5673C50.4823 14.303 50.914 14.0652 51.4249 13.8538C51.9534 13.6247 52.6053 13.5102 53.3805 13.5102C55.0366 13.5102 56.3316 13.9947 57.2653 14.9637C58.1991 15.9151 58.666 17.3246 58.666 19.1921V27.2524H55.8911V19.4564C55.8911 18.2583 55.6268 17.3862 55.0983 16.8401C54.5698 16.2939 53.7769 16.0208 52.7198 16.0208C52.1913 16.0208 51.698 16.1177 51.2399 16.3115C50.7995 16.5053 50.4119 16.7784 50.0771 17.1308C49.7424 17.4655 49.4781 17.8795 49.2843 18.3729C49.1081 18.8486 49.02 19.3859 49.02 19.9849V27.2524H46.2451V13.7745ZM67.7824 27.5167C66.831 27.5167 65.9325 27.3405 65.0868 26.9882C64.2587 26.6182 63.5276 26.1249 62.8933 25.5082C62.2767 24.874 61.7922 24.134 61.4398 23.2883C61.0875 22.425 60.9113 21.5001 60.9113 20.5135C60.9113 19.5269 61.0875 18.6107 61.4398 17.765C61.7922 16.9017 62.2767 16.1618 62.8933 15.5451C63.5276 14.9109 64.2587 14.4176 65.0868 14.0652C65.9325 13.6952 66.831 13.5102 67.7824 13.5102C68.7338 13.5102 69.6235 13.6952 70.4515 14.0652C71.2972 14.4176 72.0284 14.9109 72.645 15.5451C73.2793 16.1618 73.7726 16.9017 74.1249 17.765C74.4773 18.6107 74.6535 19.5269 74.6535 20.5135V21.4384H63.6861C63.7919 22.0022 63.968 22.5043 64.2147 22.9448C64.4613 23.3852 64.7697 23.764 65.1397 24.0812C65.5096 24.3807 65.9149 24.6097 66.3553 24.7683C66.8134 24.9268 67.2891 25.0061 67.7824 25.0061C68.4695 25.0061 69.0597 24.918 69.553 24.7418C70.0463 24.548 70.4427 24.3278 70.7422 24.0812C71.0946 23.8169 71.3853 23.5086 71.6143 23.1562H74.5214C74.1866 23.9843 73.7197 24.7154 73.1207 25.3497C72.8564 25.6139 72.5569 25.8782 72.2222 26.1425C71.8874 26.4068 71.4998 26.6446 71.0594 26.856C70.6189 27.0498 70.1256 27.2084 69.5794 27.3317C69.0333 27.4551 68.4343 27.5167 67.7824 27.5167ZM71.7465 19.1921C71.676 18.8045 71.5439 18.4169 71.3501 18.0293C71.1563 17.6417 70.892 17.307 70.5573 17.0251C70.2225 16.7256 69.8261 16.4877 69.368 16.3115C68.9099 16.1177 68.3814 16.0208 67.7824 16.0208C67.3243 16.0208 66.875 16.0913 66.4346 16.2322C66.0118 16.3732 65.6153 16.5846 65.2454 16.8665C64.893 17.1308 64.5935 17.4655 64.3468 17.8707C64.1002 18.2583 63.924 18.6988 63.8183 19.1921H71.7465ZM77.034 13.7745H79.8089V15.7566H79.941C80.1524 15.369 80.4343 15.0166 80.7867 14.6995C81.0862 14.4352 81.465 14.1973 81.9231 13.9859C82.3988 13.7569 82.9714 13.6424 83.6408 13.6424H85.2265V16.2851H83.5087C82.9802 16.2851 82.4869 16.3732 82.0288 16.5494C81.5883 16.7256 81.2007 16.9722 80.866 17.2893C80.5312 17.6065 80.267 17.9941 80.0732 18.4521C79.897 18.9102 79.8089 19.4211 79.8089 19.9849V27.2524H77.034V13.7745ZM88.5206 29.763H97.2416V25.5347H97.1095C96.81 25.9046 96.4488 26.2394 96.026 26.5389C95.6736 26.7856 95.2332 27.0146 94.7046 27.226C94.1761 27.4198 93.5682 27.5167 92.8811 27.5167C91.9826 27.5167 91.1457 27.3493 90.3705 27.0146C89.6129 26.6798 88.9434 26.213 88.362 25.6139C87.7983 24.9973 87.349 24.2573 87.0143 23.3941C86.6971 22.5308 86.5386 21.5706 86.5386 20.5135C86.5386 19.4564 86.6971 18.4962 87.0143 17.6329C87.349 16.7696 87.7983 16.0384 88.362 15.4394C88.9434 14.8228 89.6129 14.3471 90.3705 14.0123C91.1457 13.6776 91.9826 13.5102 92.8811 13.5102C93.5682 13.5102 94.1761 13.6159 94.7046 13.8274C95.2332 14.0388 95.6736 14.2678 96.026 14.5145C96.4488 14.814 96.81 15.1487 97.1095 15.5187H97.2416V13.7745H100.016V32.2736H88.5206V29.763ZM93.4097 25.0061C94.5372 25.0061 95.4534 24.6273 96.1581 23.8697C96.8805 23.0945 97.2416 21.9758 97.2416 20.5135C97.2416 19.0512 96.8805 17.9412 96.1581 17.1836C95.4534 16.4084 94.5372 16.0208 93.4097 16.0208C92.2116 16.0208 91.2514 16.4084 90.5291 17.1836C89.8067 17.9412 89.4456 19.0512 89.4456 20.5135C89.4456 21.9758 89.8067 23.0945 90.5291 23.8697C91.2514 24.6273 92.2116 25.0061 93.4097 25.0061ZM108.331 27.2524H105.556L101.856 13.7745H104.763L107.67 24.6097H109.124L112.295 13.7745H115.202L109.652 32.2736H106.745L108.331 27.2524ZM116.913 8.75331H129.863V11.6603H119.953V16.9458H127.749V19.8528H119.953V27.2524H116.913V8.75331ZM131.979 13.7745H134.754V27.2524H131.979V13.7745ZM133.353 11.7925C132.895 11.7925 132.508 11.6339 132.191 11.3168C131.873 10.9996 131.715 10.612 131.715 10.154C131.715 9.69589 131.873 9.30828 132.191 8.99116C132.508 8.65641 132.895 8.48904 133.353 8.48904C133.811 8.48904 134.199 8.65641 134.516 8.99116C134.851 9.30828 135.018 9.69589 135.018 10.154C135.018 10.612 134.851 10.9996 134.516 11.3168C134.199 11.6339 133.811 11.7925 133.353 11.7925ZM137.915 13.7745H140.69V15.6244H140.822C141.069 15.2368 141.395 14.8845 141.8 14.5673C142.152 14.303 142.584 14.0652 143.095 13.8538C143.623 13.6247 144.275 13.5102 145.05 13.5102C146.706 13.5102 148.001 13.9947 148.935 14.9637C149.869 15.9151 150.336 17.3246 150.336 19.1921V27.2524H147.561V19.4564C147.561 18.2583 147.297 17.3862 146.768 16.8401C146.24 16.2939 145.447 16.0208 144.39 16.0208C143.861 16.0208 143.368 16.1177 142.91 16.3115C142.469 16.5053 142.082 16.7784 141.747 17.1308C141.412 17.4655 141.148 17.8795 140.954 18.3729C140.778 18.8486 140.69 19.3859 140.69 19.9849V27.2524H137.915V13.7745ZM158.924 27.5167C158.025 27.5167 157.188 27.3493 156.413 27.0146C155.655 26.6798 154.986 26.213 154.405 25.6139C153.841 24.9973 153.392 24.2573 153.057 23.3941C152.74 22.5308 152.581 21.5706 152.581 20.5135C152.581 19.4564 152.74 18.4962 153.057 17.6329C153.392 16.7696 153.841 16.0384 154.405 15.4394C154.986 14.8228 155.655 14.3471 156.413 14.0123C157.188 13.6776 158.025 13.5102 158.924 13.5102C159.611 13.5102 160.219 13.6159 160.747 13.8274C161.276 14.0388 161.716 14.2678 162.068 14.5145C162.491 14.814 162.852 15.1399 163.152 15.4923H163.284V8.75331H166.059V27.2524H163.284V25.5347H163.152C162.852 25.9046 162.491 26.2394 162.068 26.5389C161.716 26.7856 161.276 27.0146 160.747 27.226C160.219 27.4198 159.611 27.5167 158.924 27.5167ZM159.452 25.0061C160.58 25.0061 161.496 24.6273 162.201 23.8697C162.923 23.0945 163.284 21.9758 163.284 20.5135C163.284 19.0512 162.923 17.9412 162.201 17.1836C161.496 16.4084 160.58 16.0208 159.452 16.0208C158.254 16.0208 157.294 16.4084 156.572 17.1836C155.849 17.9412 155.488 19.0512 155.488 20.5135C155.488 21.9758 155.849 23.0945 156.572 23.8697C157.294 24.6273 158.254 25.0061 159.452 25.0061Z" fill="#000C44"/>
<path d="M22.5233 21.7424C22.5233 27.9788 17.4815 33.0342 11.2619 33.0342C5.04233 33.0342 1.42063e-05 27.9788 1.42063e-05 21.7424C-0.00335111 19.6227 0.591251 17.5453 1.71516 15.75L9.33558 3.17801C10.2124 1.73149 12.3113 1.7316 13.1879 3.17821L20.8065 15.75C21.931 17.5451 22.5262 19.6226 22.5233 21.7424Z" fill="#4361EE"/>
<path d="M6.00623 23.9022C6.00623 21.0675 8.35906 18.7696 11.2615 18.7696C14.164 18.7696 16.5171 21.0675 16.5171 23.9022C16.5187 24.8657 16.2412 25.81 15.7167 26.6261L11.899 32.7607C11.6052 33.2329 10.9179 33.2329 10.6241 32.7607L6.80737 26.6261C6.28262 25.8101 6.00488 24.8658 6.00623 23.9022Z" fill="white"/>
<circle cx="11.2617" cy="24.0251" r="3.00311" fill="#FF0000"/>
</svg>
