<svg width="17" height="22" viewBox="0 0 17 22" fill="none" xmlns="http://www.w3.org/2000/svg">
<path d="M2.464 21V13.804H0.28V12.012H2.464V9.716H0.28V7.924H2.464V1.008H5.376L8.036 7.924H11.34V1.008H13.552V7.924H15.736V9.716H13.552V12.012H15.736V13.804H13.552V21H10.612L7.952 13.804H4.648V21H2.464ZM4.648 12.012H7.28L6.44 9.716H4.592L4.648 12.012ZM11.34 17.052H11.452L11.368 13.804H10.192L11.34 17.052ZM4.592 7.924H5.768L4.592 4.452H4.48L4.592 7.924ZM9.52 12.012H11.396L11.34 9.716H8.68L9.52 12.012Z" fill="#969696"/>
</svg>
