<svg width="185" height="26" viewBox="0 0 185 26" fill="none" xmlns="http://www.w3.org/2000/svg">
<path d="M66.6 19.4C65.9333 19.4 65.34 19.3333 64.82 19.2C64.3 19.0667 63.84 18.8933 63.44 18.68C63.04 18.4667 62.6933 18.2267 62.4 17.96C62.1067 17.68 61.86 17.3933 61.66 17.1C61.18 16.4333 60.86 15.6667 60.7 14.8H63.1C63.2067 15.28 63.4 15.7 63.68 16.06C63.92 16.3667 64.2667 16.6533 64.72 16.92C65.1867 17.1733 65.8133 17.3 66.6 17.3C67.7067 17.3 68.5 17.1 68.98 16.7C69.46 16.3 69.7 15.8 69.7 15.2C69.7 14.8267 69.58 14.52 69.34 14.28C69.1 14.0267 68.78 13.8133 68.38 13.64C67.9933 13.4667 67.5467 13.3133 67.04 13.18C66.5333 13.0467 66.02 12.9067 65.5 12.76C64.98 12.6 64.4667 12.4267 63.96 12.24C63.4533 12.04 63 11.7933 62.6 11.5C62.2133 11.1933 61.9 10.8267 61.66 10.4C61.42 9.96 61.3 9.42667 61.3 8.8C61.3 8.25333 61.42 7.72667 61.66 7.22C61.9 6.71333 62.2467 6.26667 62.7 5.88C63.1533 5.49333 63.7 5.18667 64.34 4.96C64.98 4.72 65.7 4.6 66.5 4.6C67.1133 4.6 67.66 4.66 68.14 4.78C68.62 4.9 69.0467 5.06 69.42 5.26C69.7933 5.44667 70.1133 5.66667 70.38 5.92C70.66 6.16 70.8933 6.40667 71.08 6.66C71.52 7.26 71.8267 7.94 72 8.7H69.6C69.5067 8.32667 69.34 7.99333 69.1 7.7C68.8867 7.44667 68.5733 7.22 68.16 7.02C67.76 6.80667 67.2067 6.7 66.5 6.7C65.5533 6.7 64.8467 6.9 64.38 7.3C63.9267 7.68667 63.7 8.15333 63.7 8.7C63.7 9.07333 63.82 9.38667 64.06 9.64C64.3 9.88 64.6133 10.0933 65 10.28C65.4 10.4533 65.8533 10.6133 66.36 10.76C66.8667 10.8933 67.38 11.04 67.9 11.2C68.42 11.3467 68.9333 11.52 69.44 11.72C69.9467 11.9067 70.3933 12.1533 70.78 12.46C71.18 12.7533 71.5 13.1133 71.74 13.54C71.98 13.9667 72.1 14.4867 72.1 15.1C72.1 15.6733 71.9733 16.22 71.72 16.74C71.48 17.26 71.1267 17.72 70.66 18.12C70.1933 18.5067 69.62 18.8133 68.94 19.04C68.26 19.28 67.48 19.4 66.6 19.4ZM74.0906 8.8H76.1906V19H74.0906V8.8ZM75.1306 7.3C74.784 7.3 74.4906 7.18 74.2506 6.94C74.0106 6.7 73.8906 6.40667 73.8906 6.06C73.8906 5.71333 74.0106 5.42 74.2506 5.18C74.4906 4.92667 74.784 4.8 75.1306 4.8C75.4773 4.8 75.7706 4.92667 76.0106 5.18C76.264 5.42 76.3906 5.71333 76.3906 6.06C76.3906 6.40667 76.264 6.7 76.0106 6.94C75.7706 7.18 75.4773 7.3 75.1306 7.3ZM79.4828 20.9H86.0828V17.7H85.9828C85.7561 17.98 85.4828 18.2333 85.1628 18.46C84.8961 18.6467 84.5628 18.82 84.1628 18.98C83.7628 19.1267 83.3028 19.2 82.7828 19.2C82.1028 19.2 81.4695 19.0733 80.8828 18.82C80.3095 18.5667 79.8028 18.2133 79.3628 17.76C78.9361 17.2933 78.5961 16.7333 78.3428 16.08C78.1028 15.4267 77.9828 14.7 77.9828 13.9C77.9828 13.1 78.1028 12.3733 78.3428 11.72C78.5961 11.0667 78.9361 10.5133 79.3628 10.06C79.8028 9.59333 80.3095 9.23333 80.8828 8.98C81.4695 8.72667 82.1028 8.6 82.7828 8.6C83.3028 8.6 83.7628 8.68 84.1628 8.84C84.5628 9 84.8961 9.17333 85.1628 9.36C85.4828 9.58667 85.7561 9.84 85.9828 10.12H86.0828V8.8H88.1828V22.8H79.4828V20.9ZM83.1828 17.3C84.0361 17.3 84.7295 17.0133 85.2628 16.44C85.8095 15.8533 86.0828 15.0067 86.0828 13.9C86.0828 12.7933 85.8095 11.9533 85.2628 11.38C84.7295 10.7933 84.0361 10.5 83.1828 10.5C82.2761 10.5 81.5495 10.7933 81.0028 11.38C80.4561 11.9533 80.1828 12.7933 80.1828 13.9C80.1828 15.0067 80.4561 15.8533 81.0028 16.44C81.5495 17.0133 82.2761 17.3 83.1828 17.3ZM90.575 8.8H92.675V10.2H92.775C92.9617 9.90667 93.2083 9.64 93.515 9.4C93.7817 9.2 94.1083 9.02 94.495 8.86C94.895 8.68667 95.3883 8.6 95.975 8.6C97.2283 8.6 98.2083 8.96667 98.915 9.7C99.6217 10.42 99.975 11.4867 99.975 12.9V19H97.875V13.1C97.875 12.1933 97.675 11.5333 97.275 11.12C96.875 10.7067 96.275 10.5 95.475 10.5C95.075 10.5 94.7017 10.5733 94.355 10.72C94.0217 10.8667 93.7283 11.0733 93.475 11.34C93.2217 11.5933 93.0217 11.9067 92.875 12.28C92.7417 12.64 92.675 13.0467 92.675 13.5V19H90.575V8.8ZM106.274 19.2C105.021 19.2 104.041 18.84 103.334 18.12C102.628 17.3867 102.274 16.3133 102.274 14.9V8.8H104.374V14.7C104.374 15.6067 104.574 16.2667 104.974 16.68C105.374 17.0933 105.974 17.3 106.774 17.3C107.174 17.3 107.541 17.2267 107.874 17.08C108.221 16.9333 108.521 16.7333 108.774 16.48C109.028 16.2133 109.221 15.9 109.354 15.54C109.501 15.1667 109.574 14.7533 109.574 14.3V8.8H111.674V19H109.574V17.6H109.474C109.288 17.8933 109.041 18.16 108.734 18.4C108.468 18.6 108.134 18.7867 107.734 18.96C107.334 19.12 106.848 19.2 106.274 19.2ZM114.071 8.8H116.171V10.1H116.271C116.498 9.83333 116.771 9.58667 117.091 9.36C117.358 9.17333 117.684 9 118.071 8.84C118.471 8.68 118.938 8.6 119.471 8.6C120.151 8.6 120.778 8.72667 121.351 8.98C121.938 9.23333 122.444 9.59333 122.871 10.06C123.311 10.5133 123.651 11.0667 123.891 11.72C124.144 12.3733 124.271 13.1 124.271 13.9C124.271 14.7 124.144 15.4267 123.891 16.08C123.651 16.7333 123.311 17.2933 122.871 17.76C122.444 18.2133 121.938 18.5667 121.351 18.82C120.778 19.0733 120.151 19.2 119.471 19.2C118.938 19.2 118.471 19.1267 118.071 18.98C117.684 18.82 117.358 18.6467 117.091 18.46C116.771 18.2333 116.498 17.98 116.271 17.7H116.171V22.8H114.071V8.8ZM119.071 17.3C119.978 17.3 120.704 17.0133 121.251 16.44C121.798 15.8533 122.071 15.0067 122.071 13.9C122.071 12.7933 121.798 11.9533 121.251 11.38C120.704 10.7933 119.978 10.5 119.071 10.5C118.218 10.5 117.518 10.7933 116.971 11.38C116.438 11.9533 116.171 12.7933 116.171 13.9C116.171 15.0067 116.438 15.8533 116.971 16.44C117.518 17.0133 118.218 17.3 119.071 17.3Z" fill="#000C44"/>
<line x1="145" y1="12.5" x2="185" y2="12.5" stroke="#DDDDDD"/>
<line x1="-4.37114e-08" y1="12.5" x2="40" y2="12.5" stroke="#DDDDDD"/>
</svg>
