<svg width="134" height="20" viewBox="0 0 134 20" fill="none" xmlns="http://www.w3.org/2000/svg">
<path d="M25.25 15.3C24.59 15.3 23.995 15.2 23.465 15C22.945 14.8 22.5 14.515 22.13 14.145C21.76 13.765 21.475 13.31 21.275 12.78C21.075 12.24 20.975 11.63 20.975 10.95V4.5H22.7V10.95C22.7 11.82 22.925 12.49 23.375 12.96C23.835 13.42 24.46 13.65 25.25 13.65C26.04 13.65 26.66 13.42 27.11 12.96C27.57 12.49 27.8 11.82 27.8 10.95V4.5H29.525V10.95C29.525 11.63 29.425 12.24 29.225 12.78C29.025 13.31 28.74 13.765 28.37 14.145C28 14.515 27.55 14.8 27.02 15C26.5 15.2 25.91 15.3 25.25 15.3ZM34.4779 15.15C34.0879 15.15 33.7329 15.115 33.4129 15.045C33.1029 14.975 32.8279 14.88 32.5879 14.76C32.3479 14.64 32.1379 14.505 31.9579 14.355C31.7779 14.195 31.6229 14.035 31.4929 13.875C31.1929 13.505 30.9879 13.08 30.8779 12.6H32.6029C32.6829 12.81 32.8079 13 32.9779 13.17C33.1179 13.31 33.3079 13.44 33.5479 13.56C33.7879 13.67 34.0979 13.725 34.4779 13.725C34.7779 13.725 35.0279 13.7 35.2279 13.65C35.4279 13.6 35.5879 13.535 35.7079 13.455C35.8379 13.365 35.9279 13.265 35.9779 13.155C36.0279 13.045 36.0529 12.935 36.0529 12.825C36.0529 12.605 35.9329 12.435 35.6929 12.315C35.4629 12.195 35.1679 12.095 34.8079 12.015C34.4479 11.935 34.0629 11.85 33.6529 11.76C33.2429 11.67 32.8579 11.54 32.4979 11.37C32.1379 11.19 31.8379 10.95 31.5979 10.65C31.3679 10.35 31.2529 9.95 31.2529 9.45C31.2529 9.17 31.3179 8.895 31.4479 8.625C31.5879 8.355 31.7879 8.115 32.0479 7.905C32.3079 7.695 32.6229 7.525 32.9929 7.395C33.3629 7.265 33.7829 7.2 34.2529 7.2C35.0029 7.2 35.5979 7.325 36.0379 7.575C36.4879 7.825 36.8279 8.1 37.0579 8.4C37.3279 8.75 37.5179 9.15 37.6279 9.6H35.9779C35.9079 9.42 35.7979 9.26 35.6479 9.12C35.5179 9 35.3379 8.89 35.1079 8.79C34.8879 8.68 34.6029 8.625 34.2529 8.625C33.7729 8.625 33.4279 8.71 33.2179 8.88C33.0079 9.05 32.9029 9.245 32.9029 9.465C32.9029 9.685 33.0179 9.855 33.2479 9.975C33.4879 10.085 33.7879 10.18 34.1479 10.26C34.5079 10.34 34.8929 10.425 35.3029 10.515C35.7129 10.605 36.0979 10.74 36.4579 10.92C36.8179 11.09 37.1129 11.325 37.3429 11.625C37.5829 11.925 37.7029 12.325 37.7029 12.825C37.7029 13.125 37.6329 13.415 37.4929 13.695C37.3529 13.975 37.1479 14.225 36.8779 14.445C36.6079 14.655 36.2679 14.825 35.8579 14.955C35.4579 15.085 34.9979 15.15 34.4779 15.15ZM42.4994 15.15C41.9594 15.15 41.4494 15.05 40.9694 14.85C40.4994 14.64 40.0844 14.36 39.7244 14.01C39.3744 13.65 39.0994 13.23 38.8994 12.75C38.6994 12.26 38.5994 11.735 38.5994 11.175C38.5994 10.615 38.6994 10.095 38.8994 9.615C39.0994 9.125 39.3744 8.705 39.7244 8.355C40.0844 7.995 40.4994 7.715 40.9694 7.515C41.4494 7.305 41.9594 7.2 42.4994 7.2C43.0394 7.2 43.5444 7.305 44.0144 7.515C44.4944 7.715 44.9094 7.995 45.2594 8.355C45.6194 8.705 45.8994 9.125 46.0994 9.615C46.2994 10.095 46.3994 10.615 46.3994 11.175V11.7H40.1744C40.2344 12.02 40.3344 12.305 40.4744 12.555C40.6144 12.805 40.7894 13.02 40.9994 13.2C41.2094 13.37 41.4394 13.5 41.6894 13.59C41.9494 13.68 42.2194 13.725 42.4994 13.725C42.8894 13.725 43.2244 13.675 43.5044 13.575C43.7844 13.465 44.0094 13.34 44.1794 13.2C44.3794 13.05 44.5444 12.875 44.6744 12.675H46.3244C46.1344 13.145 45.8694 13.56 45.5294 13.92C45.3794 14.07 45.2094 14.22 45.0194 14.37C44.8294 14.52 44.6094 14.655 44.3594 14.775C44.1094 14.885 43.8294 14.975 43.5194 15.045C43.2094 15.115 42.8694 15.15 42.4994 15.15ZM44.7494 10.425C44.7094 10.205 44.6344 9.985 44.5244 9.765C44.4144 9.545 44.2644 9.355 44.0744 9.195C43.8844 9.025 43.6594 8.89 43.3994 8.79C43.1394 8.68 42.8394 8.625 42.4994 8.625C42.2394 8.625 41.9844 8.665 41.7344 8.745C41.4944 8.825 41.2694 8.945 41.0594 9.105C40.8594 9.255 40.6894 9.445 40.5494 9.675C40.4094 9.895 40.3094 10.145 40.2494 10.425H44.7494ZM51.9547 7.35H53.5297V8.4H53.6047C53.7347 8.18 53.9047 7.98 54.1147 7.8C54.2947 7.65 54.5247 7.515 54.8047 7.395C55.0847 7.265 55.4347 7.2 55.8547 7.2C56.3447 7.2 56.7447 7.275 57.0547 7.425C57.3747 7.575 57.6297 7.74 57.8197 7.92C58.0397 8.13 58.2097 8.365 58.3297 8.625H58.4047C58.5447 8.365 58.7397 8.13 58.9897 7.92C59.1897 7.74 59.4547 7.575 59.7847 7.425C60.1247 7.275 60.5397 7.2 61.0297 7.2C61.8997 7.2 62.5897 7.475 63.0997 8.025C63.6197 8.565 63.8797 9.365 63.8797 10.425V15H62.3047V10.5C62.3047 9.86 62.1597 9.39 61.8697 9.09C61.5897 8.78 61.1847 8.625 60.6547 8.625C60.3947 8.625 60.1447 8.68 59.9047 8.79C59.6747 8.89 59.4697 9.04 59.2897 9.24C59.1097 9.43 58.9647 9.66 58.8547 9.93C58.7547 10.19 58.7047 10.48 58.7047 10.8V15H57.1297V10.5C57.1297 9.86 56.9847 9.39 56.6947 9.09C56.4147 8.78 56.0097 8.625 55.4797 8.625C55.2197 8.625 54.9697 8.68 54.7297 8.79C54.4997 8.89 54.2947 9.04 54.1147 9.24C53.9347 9.43 53.7897 9.66 53.6797 9.93C53.5797 10.19 53.5297 10.48 53.5297 10.8V15H51.9547V7.35ZM68.532 15H66.957L64.857 7.35H66.507L68.157 13.5H68.982L70.782 7.35H72.432L69.282 17.85H67.632L68.532 15ZM77.4576 4.5H79.0326V13.575H80.7576V15H77.4576V4.5ZM85.3332 15.15C84.7732 15.15 84.2482 15.05 83.7582 14.85C83.2782 14.64 82.8582 14.36 82.4982 14.01C82.1482 13.65 81.8682 13.23 81.6582 12.75C81.4582 12.26 81.3582 11.735 81.3582 11.175C81.3582 10.615 81.4582 10.095 81.6582 9.615C81.8682 9.125 82.1482 8.705 82.4982 8.355C82.8582 7.995 83.2782 7.715 83.7582 7.515C84.2482 7.305 84.7732 7.2 85.3332 7.2C85.8932 7.2 86.4132 7.305 86.8932 7.515C87.3832 7.715 87.8032 7.995 88.1532 8.355C88.5132 8.705 88.7932 9.125 88.9932 9.615C89.2032 10.095 89.3082 10.615 89.3082 11.175C89.3082 11.735 89.2032 12.26 88.9932 12.75C88.7932 13.23 88.5132 13.65 88.1532 14.01C87.8032 14.36 87.3832 14.64 86.8932 14.85C86.4132 15.05 85.8932 15.15 85.3332 15.15ZM85.3332 13.725C85.6732 13.725 85.9832 13.665 86.2632 13.545C86.5532 13.425 86.7982 13.255 86.9982 13.035C87.2082 12.815 87.3682 12.55 87.4782 12.24C87.5982 11.92 87.6582 11.565 87.6582 11.175C87.6582 10.785 87.5982 10.435 87.4782 10.125C87.3682 9.805 87.2082 9.535 86.9982 9.315C86.7982 9.095 86.5532 8.925 86.2632 8.805C85.9832 8.685 85.6732 8.625 85.3332 8.625C84.9932 8.625 84.6782 8.685 84.3882 8.805C84.1082 8.925 83.8632 9.095 83.6532 9.315C83.4532 9.535 83.2932 9.805 83.1732 10.125C83.0632 10.435 83.0082 10.785 83.0082 11.175C83.0082 11.565 83.0632 11.92 83.1732 12.24C83.2932 12.55 83.4532 12.815 83.6532 13.035C83.8632 13.255 84.1082 13.425 84.3882 13.545C84.6782 13.665 84.9932 13.725 85.3332 13.725ZM94.0309 15.15C93.4909 15.15 92.9859 15.055 92.5159 14.865C92.0459 14.665 91.6409 14.39 91.3009 14.04C90.9609 13.68 90.6909 13.26 90.4909 12.78C90.3009 12.29 90.2059 11.755 90.2059 11.175C90.2059 10.595 90.3009 10.065 90.4909 9.585C90.6909 9.095 90.9609 8.675 91.3009 8.325C91.6409 7.965 92.0459 7.69 92.5159 7.5C92.9859 7.3 93.4909 7.2 94.0309 7.2C94.4109 7.2 94.7559 7.24 95.0659 7.32C95.3759 7.4 95.6509 7.505 95.8909 7.635C96.1409 7.765 96.3559 7.915 96.5359 8.085C96.7159 8.255 96.8759 8.425 97.0159 8.595C97.3359 8.995 97.5659 9.455 97.7059 9.975H96.0559C95.9759 9.725 95.8459 9.5 95.6659 9.3C95.5159 9.13 95.3109 8.975 95.0509 8.835C94.7909 8.695 94.4509 8.625 94.0309 8.625C93.7309 8.625 93.4459 8.685 93.1759 8.805C92.9159 8.925 92.6859 9.095 92.4859 9.315C92.2959 9.535 92.1409 9.805 92.0209 10.125C91.9109 10.435 91.8559 10.785 91.8559 11.175C91.8559 11.565 91.9109 11.92 92.0209 12.24C92.1409 12.55 92.2959 12.815 92.4859 13.035C92.6859 13.255 92.9159 13.425 93.1759 13.545C93.4459 13.665 93.7309 13.725 94.0309 13.725C94.4609 13.725 94.8109 13.655 95.0809 13.515C95.3509 13.375 95.5659 13.22 95.7259 13.05C95.9059 12.86 96.0409 12.635 96.1309 12.375H97.7059C97.5659 12.905 97.3359 13.37 97.0159 13.77C96.8759 13.94 96.7159 14.11 96.5359 14.28C96.3559 14.44 96.1409 14.585 95.8909 14.715C95.6509 14.845 95.3759 14.95 95.0659 15.03C94.7559 15.11 94.4109 15.15 94.0309 15.15ZM102.126 15.15C101.616 15.15 101.141 15.055 100.701 14.865C100.271 14.675 99.8912 14.41 99.5612 14.07C99.2412 13.72 98.9862 13.3 98.7962 12.81C98.6162 12.32 98.5262 11.775 98.5262 11.175C98.5262 10.575 98.6162 10.03 98.7962 9.54C98.9862 9.05 99.2412 8.635 99.5612 8.295C99.8912 7.945 100.271 7.675 100.701 7.485C101.141 7.295 101.616 7.2 102.126 7.2C102.516 7.2 102.861 7.26 103.161 7.38C103.461 7.5 103.711 7.63 103.911 7.77C104.151 7.94 104.356 8.125 104.526 8.325H104.601V7.35H106.176V15H104.601V13.95H104.526C104.356 14.17 104.151 14.37 103.911 14.55C103.711 14.7 103.461 14.84 103.161 14.97C102.861 15.09 102.516 15.15 102.126 15.15ZM102.426 13.725C103.066 13.725 103.586 13.51 103.986 13.08C104.396 12.64 104.601 12.005 104.601 11.175C104.601 10.345 104.396 9.715 103.986 9.285C103.586 8.845 103.066 8.625 102.426 8.625C101.746 8.625 101.201 8.845 100.791 9.285C100.381 9.715 100.176 10.345 100.176 11.175C100.176 12.005 100.381 12.64 100.791 13.08C101.201 13.51 101.746 13.725 102.426 13.725ZM108.27 8.775H107.37V7.35H108.27V5.7H109.845V7.35H112.17V8.775H109.845V13.575H112.245V15H108.27V8.775ZM113.595 7.35H115.17V15H113.595V7.35ZM114.375 6.225C114.115 6.225 113.895 6.135 113.715 5.955C113.535 5.775 113.445 5.555 113.445 5.295C113.445 5.035 113.535 4.815 113.715 4.635C113.895 4.445 114.115 4.35 114.375 4.35C114.635 4.35 114.855 4.445 115.035 4.635C115.225 4.815 115.32 5.035 115.32 5.295C115.32 5.555 115.225 5.775 115.035 5.955C114.855 6.135 114.635 6.225 114.375 6.225ZM120.489 15.15C119.929 15.15 119.404 15.05 118.914 14.85C118.434 14.64 118.014 14.36 117.654 14.01C117.304 13.65 117.024 13.23 116.814 12.75C116.614 12.26 116.514 11.735 116.514 11.175C116.514 10.615 116.614 10.095 116.814 9.615C117.024 9.125 117.304 8.705 117.654 8.355C118.014 7.995 118.434 7.715 118.914 7.515C119.404 7.305 119.929 7.2 120.489 7.2C121.049 7.2 121.569 7.305 122.049 7.515C122.539 7.715 122.959 7.995 123.309 8.355C123.669 8.705 123.949 9.125 124.149 9.615C124.359 10.095 124.464 10.615 124.464 11.175C124.464 11.735 124.359 12.26 124.149 12.75C123.949 13.23 123.669 13.65 123.309 14.01C122.959 14.36 122.539 14.64 122.049 14.85C121.569 15.05 121.049 15.15 120.489 15.15ZM120.489 13.725C120.829 13.725 121.139 13.665 121.419 13.545C121.709 13.425 121.954 13.255 122.154 13.035C122.364 12.815 122.524 12.55 122.634 12.24C122.754 11.92 122.814 11.565 122.814 11.175C122.814 10.785 122.754 10.435 122.634 10.125C122.524 9.805 122.364 9.535 122.154 9.315C121.954 9.095 121.709 8.925 121.419 8.805C121.139 8.685 120.829 8.625 120.489 8.625C120.149 8.625 119.834 8.685 119.544 8.805C119.264 8.925 119.019 9.095 118.809 9.315C118.609 9.535 118.449 9.805 118.329 10.125C118.219 10.435 118.164 10.785 118.164 11.175C118.164 11.565 118.219 11.92 118.329 12.24C118.449 12.55 118.609 12.815 118.809 13.035C119.019 13.255 119.264 13.425 119.544 13.545C119.834 13.665 120.149 13.725 120.489 13.725ZM125.812 7.35H127.387V8.4H127.462C127.602 8.18 127.787 7.98 128.017 7.8C128.217 7.65 128.462 7.515 128.752 7.395C129.052 7.265 129.422 7.2 129.862 7.2C130.802 7.2 131.537 7.475 132.067 8.025C132.597 8.565 132.862 9.365 132.862 10.425V15H131.287V10.575C131.287 9.895 131.137 9.4 130.837 9.09C130.537 8.78 130.087 8.625 129.487 8.625C129.187 8.625 128.907 8.68 128.647 8.79C128.397 8.9 128.177 9.055 127.987 9.255C127.797 9.445 127.647 9.68 127.537 9.96C127.437 10.23 127.387 10.535 127.387 10.875V15H125.812V7.35Z" fill="#4361EE"/>
<path d="M9.81614 3.36887L1.91414 8.35302C0.0375738 9.53468 0.781179 12.4268 2.9943 12.5596L5.57361 12.7144C6.29009 12.7575 6.94491 13.1355 7.34039 13.7345L8.76413 15.8908C9.98573 17.741 12.856 16.9354 12.9472 14.723L13.3126 5.38757C13.3845 3.5511 11.3706 2.38838 9.81614 3.36887Z" stroke="#4361EE" stroke-width="1.06998" stroke-linecap="round" stroke-linejoin="round"/>
</svg>
